<svg xmlns="http://www.w3.org/2000/svg" height="96px" viewBox="0 -960 960 960" width="96px">
  <!--
    File: accessibility_new_48dp_E8EAED_FILL0_wght400_GRAD0_opsz48.svg
    Source: https://fonts.google.com/icons?selected=Material+Symbols+Outlined:accessibility_new:FILL@0;wght@400;GRAD@0;opsz@48&icon.query=accessibility&icon.size=48&icon.color=%2318333C
    Convert to PNG: https://svgtopng.com/
  -->
  <title>accessibility_new</title>
  <style>
  .bg {
    fill: #f0f2f1;
  }
  .icon {
    fill: #006060;
    /* fill: transparent;
    stroke: #006060;
    stroke-width: 10px; */
  }
  </style>
  <rect class="bg" width="100%" height="100%" y="-100%" rx="24%" />
  <path class="icon" d=
"M480.08-734q-30.08 0-51.58-21.42t-21.5-51.5q0-30.08 21.42-51.58t51.5-21.5q30.08 0 51.58 21.42t21.5 51.5q0 30.08-21.42 51.58t-51.5 21.5ZM373-80v-533q-68-5-131.5-14T120-650l15-60q85 20 169 28.5t176 8.5q92 0 176-8.5T825-710l15 60q-58 14-121.5 23T587-612.88V-80h-60v-260h-94v260h-60Z"
/>
</svg>
